<svg width="800" height="514" viewBox="0 0 800 514" fill="none" xmlns="http://www.w3.org/2000/svg">
<path d="M797.764 270.168C799.267 274.247 800.001 278.435 800.001 282.552C800.001 297.1 791.053 310.808 776.612 316.16L331.443 480.85C327.4 482.353 323.193 483.088 319.006 483.088C313.906 483.088 308.823 481.996 304.064 479.796C295.384 475.805 288.764 468.664 285.453 459.699L194.15 212.921C190.839 203.955 191.215 194.238 195.206 185.558C199.197 176.861 206.337 170.258 215.303 166.929L660.487 2.23631C669.453 -1.07463 679.17 -0.698061 687.85 3.29256C696.547 7.28319 703.15 14.4238 706.461 23.3894L797.764 270.168ZM757.767 265.157L678.543 51.0738L570.007 206.263L757.767 265.157ZM351.343 435.324L731.873 294.541L548.481 237.025L520.153 277.558C516.753 282.408 511.24 285.199 505.478 285.199C504.011 285.199 502.507 285.002 501.022 284.627L453.151 272.314L351.343 435.324ZM497.925 246.868L636.006 49.4629L264.604 186.864L497.925 246.868ZM312.564 429.847L416.787 262.955L233.376 215.783L312.564 429.847Z" fill="#F2EEDF"/>
<path d="M208.501 464.6C211.937 473.871 207.195 484.16 197.925 487.596L130.495 512.543C128.437 513.294 126.344 513.671 124.286 513.671C117.003 513.671 110.167 509.197 107.5 501.968C104.064 492.697 108.806 482.408 118.076 478.972L185.506 454.025C194.776 450.607 205.065 455.332 208.501 464.6Z" fill="#F2EEDF"/>
<path d="M117.217 298.46C120.653 307.73 115.911 318.038 106.659 321.455L65.017 336.863C62.9763 337.614 60.8826 337.972 58.8076 337.972C51.542 337.972 44.706 333.516 42.0217 326.286C38.6029 317.016 43.3279 306.727 52.5982 303.291L94.2404 287.883C103.492 284.466 113.8 289.189 117.217 298.46Z" fill="#F2EEDF"/>
<path d="M65.6247 434.035C69.0435 443.305 64.3185 453.594 55.0482 457.013L24.1075 468.466C22.0669 469.218 19.9732 469.575 17.8982 469.575C10.6325 469.575 3.7966 465.119 1.11223 457.889C-2.30652 448.619 2.41848 438.33 11.6888 434.894L42.6294 423.458C51.8982 420.024 62.1888 424.766 65.6247 434.035Z" fill="#F2EEDF"/>
</svg>
