<svg width="1263" height="321" viewBox="0 0 1263 321" fill="none" xmlns="http://www.w3.org/2000/svg">
<path d="M457.602 168.894C458.541 171.444 459 174.062 459 176.636C459 185.731 453.408 194.3 444.384 197.646L166.194 300.601C163.667 301.541 161.038 302 158.421 302C155.234 302 152.058 301.317 149.084 299.942C143.66 297.447 139.523 292.983 137.454 287.378L80.3975 133.106C78.3285 127.502 78.5638 121.427 81.0576 116.001C83.5513 110.564 88.0136 106.436 93.6163 104.355L371.816 1.39802C377.419 -0.671798 383.491 -0.436389 388.915 2.05833C394.35 4.55305 398.477 9.01698 400.546 14.6218L457.602 168.894ZM432.607 165.761L383.1 31.9285L315.275 128.944L432.607 165.761ZM178.629 272.141L416.426 184.131L301.823 148.175L284.12 173.514C281.995 176.546 278.551 178.291 274.949 178.291C274.033 178.291 273.093 178.168 272.165 177.933L242.25 170.236L178.629 272.141ZM270.229 154.328L356.518 30.9215L124.425 116.817L270.229 154.328ZM154.396 268.717L219.526 164.385L104.911 134.896L154.396 268.717Z" fill="#F2EEDF"/>
<path d="M111.778 288.309C114.009 294.069 111.182 300.554 105.474 302.803L63.9518 319.133C62.6845 319.625 61.3909 319.883 60.1154 319.906C55.6013 319.984 51.3155 317.261 49.5834 312.769C47.3525 307.009 50.1795 300.523 55.8879 298.274L97.41 281.945C103.119 279.706 109.548 282.55 111.778 288.309Z" fill="#F2EEDF"/>
<path d="M55.792 211.267C58.0394 217.02 55.1896 223.51 49.4478 225.746L23.6038 235.824C22.3373 236.316 21.0334 236.563 19.7372 236.585C15.1987 236.664 10.88 233.955 9.12438 229.469C6.88777 223.715 9.72707 217.236 15.4803 214.989L41.3243 204.91C47.0661 202.675 53.5564 205.513 55.792 211.267Z" fill="#F2EEDF"/>
<path d="M42.1325 269.518C44.3691 275.272 41.5298 281.75 35.7763 283.987L16.574 291.478C15.3075 291.97 14.0036 292.217 12.7074 292.239C8.16889 292.318 3.85021 289.609 2.09458 285.123C-0.142039 279.369 2.69727 272.89 8.45054 270.643L27.653 263.162C33.4054 260.916 39.8851 263.766 42.1325 269.518Z" fill="#F2EEDF"/>
<path d="M576.875 125.812H595.562C595.188 131.938 593.5 137.375 590.5 142.125C587.542 146.875 583.396 150.583 578.062 153.25C572.771 155.917 566.396 157.25 558.938 157.25C553.104 157.25 547.875 156.25 543.25 154.25C538.625 152.208 534.667 149.292 531.375 145.5C528.125 141.708 525.646 137.125 523.938 131.75C522.229 126.375 521.375 120.354 521.375 113.688V107.375C521.375 100.708 522.25 94.6875 524 89.3125C525.792 83.8958 528.333 79.2917 531.625 75.5C534.958 71.7083 538.938 68.7917 543.562 66.75C548.188 64.7083 553.354 63.6875 559.062 63.6875C566.646 63.6875 573.042 65.0625 578.25 67.8125C583.5 70.5625 587.562 74.3542 590.438 79.1875C593.354 84.0208 595.104 89.5208 595.688 95.6875H576.938C576.729 92.0208 576 88.9167 574.75 86.375C573.5 83.7917 571.604 81.8542 569.062 80.5625C566.562 79.2292 563.229 78.5625 559.062 78.5625C555.938 78.5625 553.208 79.1458 550.875 80.3125C548.542 81.4792 546.583 83.25 545 85.625C543.417 88 542.229 91 541.438 94.625C540.688 98.2083 540.312 102.417 540.312 107.25V113.688C540.312 118.396 540.667 122.542 541.375 126.125C542.083 129.667 543.167 132.667 544.625 135.125C546.125 137.542 548.042 139.375 550.375 140.625C552.75 141.833 555.604 142.438 558.938 142.438C562.854 142.438 566.083 141.812 568.625 140.562C571.167 139.312 573.104 137.458 574.438 135C575.812 132.542 576.625 129.479 576.875 125.812ZM645.47 139.812V88.375H663.47V156H646.533L645.47 139.812ZM647.47 125.938L652.783 125.812C652.783 130.312 652.262 134.5 651.22 138.375C650.178 142.208 648.616 145.542 646.533 148.375C644.449 151.167 641.824 153.354 638.658 154.938C635.491 156.479 631.762 157.25 627.47 157.25C624.178 157.25 621.137 156.792 618.345 155.875C615.595 154.917 613.22 153.438 611.22 151.438C609.262 149.396 607.72 146.792 606.595 143.625C605.512 140.417 604.97 136.562 604.97 132.062V88.375H622.97V132.188C622.97 134.188 623.199 135.875 623.658 137.25C624.158 138.625 624.845 139.75 625.72 140.625C626.595 141.5 627.616 142.125 628.783 142.5C629.991 142.875 631.324 143.062 632.783 143.062C636.491 143.062 639.408 142.312 641.533 140.812C643.699 139.312 645.22 137.271 646.095 134.688C647.012 132.062 647.47 129.146 647.47 125.938ZM712.503 137.312C712.503 136.021 712.128 134.854 711.378 133.812C710.628 132.771 709.232 131.812 707.19 130.938C705.19 130.021 702.294 129.188 698.503 128.438C695.086 127.688 691.898 126.75 688.94 125.625C686.023 124.458 683.482 123.062 681.315 121.438C679.19 119.812 677.523 117.896 676.315 115.688C675.107 113.438 674.503 110.875 674.503 108C674.503 105.167 675.107 102.5 676.315 100C677.565 97.5 679.336 95.2917 681.628 93.375C683.961 91.4167 686.794 89.8958 690.128 88.8125C693.503 87.6875 697.294 87.125 701.503 87.125C707.378 87.125 712.419 88.0625 716.628 89.9375C720.878 91.8125 724.128 94.3958 726.378 97.6875C728.669 100.938 729.815 104.646 729.815 108.812H711.815C711.815 107.062 711.44 105.5 710.69 104.125C709.982 102.708 708.857 101.604 707.315 100.812C705.815 99.9792 703.857 99.5625 701.44 99.5625C699.44 99.5625 697.711 99.9167 696.253 100.625C694.794 101.292 693.669 102.208 692.878 103.375C692.128 104.5 691.753 105.75 691.753 107.125C691.753 108.167 691.961 109.104 692.378 109.938C692.836 110.729 693.565 111.458 694.565 112.125C695.565 112.792 696.857 113.417 698.44 114C700.065 114.542 702.065 115.042 704.44 115.5C709.315 116.5 713.669 117.812 717.503 119.438C721.336 121.021 724.378 123.188 726.628 125.938C728.878 128.646 730.003 132.208 730.003 136.625C730.003 139.625 729.336 142.375 728.003 144.875C726.669 147.375 724.753 149.562 722.253 151.438C719.753 153.271 716.753 154.708 713.253 155.75C709.794 156.75 705.898 157.25 701.565 157.25C695.273 157.25 689.94 156.125 685.565 153.875C681.232 151.625 677.94 148.771 675.69 145.312C673.482 141.812 672.378 138.229 672.378 134.562H689.44C689.523 137.021 690.148 139 691.315 140.5C692.523 142 694.044 143.083 695.878 143.75C697.753 144.417 699.773 144.75 701.94 144.75C704.273 144.75 706.211 144.438 707.753 143.812C709.294 143.146 710.461 142.271 711.253 141.188C712.086 140.062 712.503 138.771 712.503 137.312ZM773.535 88.375V101.125H734.16V88.375H773.535ZM743.91 71.6875H761.91V135.625C761.91 137.583 762.16 139.083 762.66 140.125C763.202 141.167 763.993 141.896 765.035 142.312C766.077 142.688 767.389 142.875 768.973 142.875C770.098 142.875 771.098 142.833 771.973 142.75C772.889 142.625 773.66 142.5 774.285 142.375L774.348 155.625C772.806 156.125 771.139 156.521 769.348 156.812C767.556 157.104 765.577 157.25 763.41 157.25C759.452 157.25 755.993 156.604 753.035 155.312C750.118 153.979 747.868 151.854 746.285 148.938C744.702 146.021 743.91 142.188 743.91 137.438V71.6875ZM778.005 122.875V121.562C778.005 116.604 778.713 112.042 780.13 107.875C781.547 103.667 783.609 100.021 786.318 96.9375C789.026 93.8542 792.359 91.4583 796.318 89.75C800.276 88 804.818 87.125 809.943 87.125C815.068 87.125 819.63 88 823.63 89.75C827.63 91.4583 830.984 93.8542 833.693 96.9375C836.443 100.021 838.526 103.667 839.943 107.875C841.359 112.042 842.068 116.604 842.068 121.562V122.875C842.068 127.792 841.359 132.354 839.943 136.562C838.526 140.729 836.443 144.375 833.693 147.5C830.984 150.583 827.651 152.979 823.693 154.688C819.734 156.396 815.193 157.25 810.068 157.25C804.943 157.25 800.38 156.396 796.38 154.688C792.422 152.979 789.068 150.583 786.318 147.5C783.609 144.375 781.547 140.729 780.13 136.562C778.713 132.354 778.005 127.792 778.005 122.875ZM796.005 121.562V122.875C796.005 125.708 796.255 128.354 796.755 130.812C797.255 133.271 798.047 135.438 799.13 137.312C800.255 139.146 801.713 140.583 803.505 141.625C805.297 142.667 807.484 143.188 810.068 143.188C812.568 143.188 814.713 142.667 816.505 141.625C818.297 140.583 819.734 139.146 820.818 137.312C821.901 135.438 822.693 133.271 823.193 130.812C823.734 128.354 824.005 125.708 824.005 122.875V121.562C824.005 118.812 823.734 116.229 823.193 113.812C822.693 111.354 821.88 109.188 820.755 107.312C819.672 105.396 818.234 103.896 816.443 102.812C814.651 101.729 812.484 101.188 809.943 101.188C807.401 101.188 805.234 101.729 803.443 102.812C801.693 103.896 800.255 105.396 799.13 107.312C798.047 109.188 797.255 111.354 796.755 113.812C796.255 116.229 796.005 118.812 796.005 121.562ZM869.85 102.375V156H851.788V88.375H868.725L869.85 102.375ZM867.35 119.812H862.35C862.35 115.104 862.913 110.771 864.038 106.812C865.204 102.812 866.892 99.3542 869.1 96.4375C871.35 93.4792 874.121 91.1875 877.413 89.5625C880.704 87.9375 884.517 87.125 888.85 87.125C891.85 87.125 894.6 87.5833 897.1 88.5C899.6 89.375 901.746 90.7708 903.538 92.6875C905.371 94.5625 906.788 97.0208 907.788 100.062C908.788 103.062 909.288 106.667 909.288 110.875V156H891.288V112.875C891.288 109.792 890.871 107.417 890.038 105.75C889.204 104.083 888.017 102.917 886.475 102.25C884.975 101.583 883.163 101.25 881.038 101.25C878.704 101.25 876.663 101.729 874.913 102.688C873.204 103.646 871.788 104.979 870.663 106.688C869.538 108.354 868.704 110.312 868.163 112.562C867.621 114.812 867.35 117.229 867.35 119.812ZM907.6 117.75L901.163 118.562C901.163 114.146 901.704 110.042 902.788 106.25C903.913 102.458 905.558 99.125 907.725 96.25C909.933 93.375 912.663 91.1458 915.913 89.5625C919.163 87.9375 922.913 87.125 927.163 87.125C930.413 87.125 933.371 87.6042 936.038 88.5625C938.704 89.4792 940.975 90.9583 942.85 93C944.767 95 946.225 97.625 947.225 100.875C948.267 104.125 948.788 108.104 948.788 112.812V156H930.725V112.812C930.725 109.688 930.308 107.312 929.475 105.688C928.683 104.021 927.517 102.875 925.975 102.25C924.475 101.583 922.683 101.25 920.6 101.25C918.433 101.25 916.538 101.688 914.913 102.562C913.288 103.396 911.933 104.562 910.85 106.062C909.767 107.562 908.954 109.312 908.413 111.312C907.871 113.271 907.6 115.417 907.6 117.75ZM992.57 157.25C987.32 157.25 982.612 156.417 978.445 154.75C974.278 153.042 970.737 150.688 967.82 147.688C964.945 144.688 962.737 141.208 961.195 137.25C959.653 133.25 958.883 129 958.883 124.5V122C958.883 116.875 959.612 112.188 961.07 107.938C962.528 103.688 964.612 100 967.32 96.875C970.07 93.75 973.403 91.3542 977.32 89.6875C981.237 87.9792 985.653 87.125 990.57 87.125C995.362 87.125 999.612 87.9167 1003.32 89.5C1007.03 91.0833 1010.13 93.3333 1012.63 96.25C1015.17 99.1667 1017.09 102.667 1018.38 106.75C1019.67 110.792 1020.32 115.292 1020.32 120.25V127.75H966.57V115.75H1002.63V114.375C1002.63 111.875 1002.17 109.646 1001.26 107.688C1000.38 105.688 999.049 104.104 997.258 102.938C995.466 101.771 993.174 101.188 990.383 101.188C988.008 101.188 985.966 101.708 984.258 102.75C982.549 103.792 981.153 105.25 980.07 107.125C979.028 109 978.237 111.208 977.695 113.75C977.195 116.25 976.945 119 976.945 122V124.5C976.945 127.208 977.32 129.708 978.07 132C978.862 134.292 979.966 136.271 981.383 137.938C982.841 139.604 984.591 140.896 986.633 141.812C988.716 142.729 991.07 143.188 993.695 143.188C996.945 143.188 999.966 142.562 1002.76 141.312C1005.59 140.021 1008.03 138.083 1010.07 135.5L1018.82 145C1017.4 147.042 1015.47 149 1013.01 150.875C1010.59 152.75 1007.67 154.292 1004.26 155.5C1000.84 156.667 996.945 157.25 992.57 157.25ZM1047.29 103.125V156H1029.29V88.375H1046.23L1047.29 103.125ZM1067.67 87.9375L1067.35 104.625C1066.48 104.5 1065.42 104.396 1064.17 104.312C1062.96 104.188 1061.85 104.125 1060.85 104.125C1058.31 104.125 1056.1 104.458 1054.23 105.125C1052.39 105.75 1050.85 106.688 1049.6 107.938C1048.39 109.188 1047.48 110.708 1046.85 112.5C1046.27 114.292 1045.94 116.333 1045.85 118.625L1042.23 117.5C1042.23 113.125 1042.67 109.104 1043.54 105.438C1044.42 101.729 1045.69 98.5 1047.35 95.75C1049.06 93 1051.14 90.875 1053.6 89.375C1056.06 87.875 1058.87 87.125 1062.04 87.125C1063.04 87.125 1064.06 87.2083 1065.1 87.375C1066.14 87.5 1067 87.6875 1067.67 87.9375ZM532.688 181H548.562L571.938 247.812L595.312 181H611.188L578.312 272H565.562L532.688 181ZM524.125 181H539.938L542.812 246.125V272H524.125V181ZM603.938 181H619.812V272H601.062V246.125L603.938 181ZM670.345 256.75V226.625C670.345 224.458 669.991 222.604 669.283 221.062C668.574 219.479 667.47 218.25 665.97 217.375C664.512 216.5 662.616 216.062 660.283 216.062C658.283 216.062 656.553 216.417 655.095 217.125C653.637 217.792 652.512 218.771 651.72 220.062C650.928 221.312 650.533 222.792 650.533 224.5H632.533C632.533 221.625 633.199 218.896 634.533 216.312C635.866 213.729 637.803 211.458 640.345 209.5C642.887 207.5 645.908 205.938 649.408 204.812C652.949 203.688 656.908 203.125 661.283 203.125C666.533 203.125 671.199 204 675.283 205.75C679.366 207.5 682.574 210.125 684.908 213.625C687.283 217.125 688.47 221.5 688.47 226.75V255.688C688.47 259.396 688.699 262.438 689.158 264.812C689.616 267.146 690.283 269.188 691.158 270.938V272H672.97C672.095 270.167 671.428 267.875 670.97 265.125C670.553 262.333 670.345 259.542 670.345 256.75ZM672.72 230.812L672.845 241H662.783C660.408 241 658.345 241.271 656.595 241.812C654.845 242.354 653.408 243.125 652.283 244.125C651.158 245.083 650.324 246.208 649.783 247.5C649.283 248.792 649.033 250.208 649.033 251.75C649.033 253.292 649.387 254.688 650.095 255.938C650.803 257.146 651.824 258.104 653.158 258.812C654.491 259.479 656.053 259.812 657.845 259.812C660.553 259.812 662.908 259.271 664.908 258.188C666.908 257.104 668.449 255.771 669.533 254.188C670.658 252.604 671.241 251.104 671.283 249.688L676.033 257.312C675.366 259.021 674.449 260.792 673.283 262.625C672.158 264.458 670.72 266.188 668.97 267.812C667.22 269.396 665.116 270.708 662.658 271.75C660.199 272.75 657.283 273.25 653.908 273.25C649.616 273.25 645.72 272.396 642.22 270.688C638.762 268.938 636.012 266.542 633.97 263.5C631.97 260.417 630.97 256.917 630.97 253C630.97 249.458 631.637 246.312 632.97 243.562C634.303 240.812 636.262 238.5 638.845 236.625C641.47 234.708 644.741 233.271 648.658 232.312C652.574 231.312 657.116 230.812 662.283 230.812H672.72ZM718.69 218.812V272H700.69V204.375H717.565L718.69 218.812ZM716.065 235.812H711.19C711.19 230.812 711.836 226.312 713.128 222.312C714.419 218.271 716.232 214.833 718.565 212C720.898 209.125 723.669 206.938 726.878 205.438C730.128 203.896 733.753 203.125 737.753 203.125C740.919 203.125 743.815 203.583 746.44 204.5C749.065 205.417 751.315 206.875 753.19 208.875C755.107 210.875 756.565 213.521 757.565 216.812C758.607 220.104 759.128 224.125 759.128 228.875V272H741.003V228.812C741.003 225.812 740.586 223.479 739.753 221.812C738.919 220.146 737.69 218.979 736.065 218.312C734.482 217.604 732.523 217.25 730.19 217.25C727.773 217.25 725.669 217.729 723.878 218.688C722.128 219.646 720.669 220.979 719.503 222.688C718.378 224.354 717.523 226.312 716.94 228.562C716.357 230.812 716.065 233.229 716.065 235.812ZM808.035 256.75V226.625C808.035 224.458 807.681 222.604 806.973 221.062C806.264 219.479 805.16 218.25 803.66 217.375C802.202 216.5 800.306 216.062 797.973 216.062C795.973 216.062 794.243 216.417 792.785 217.125C791.327 217.792 790.202 218.771 789.41 220.062C788.618 221.312 788.223 222.792 788.223 224.5H770.223C770.223 221.625 770.889 218.896 772.223 216.312C773.556 213.729 775.493 211.458 778.035 209.5C780.577 207.5 783.598 205.938 787.098 204.812C790.639 203.688 794.598 203.125 798.973 203.125C804.223 203.125 808.889 204 812.973 205.75C817.056 207.5 820.264 210.125 822.598 213.625C824.973 217.125 826.16 221.5 826.16 226.75V255.688C826.16 259.396 826.389 262.438 826.848 264.812C827.306 267.146 827.973 269.188 828.848 270.938V272H810.66C809.785 270.167 809.118 267.875 808.66 265.125C808.243 262.333 808.035 259.542 808.035 256.75ZM810.41 230.812L810.535 241H800.473C798.098 241 796.035 241.271 794.285 241.812C792.535 242.354 791.098 243.125 789.973 244.125C788.848 245.083 788.014 246.208 787.473 247.5C786.973 248.792 786.723 250.208 786.723 251.75C786.723 253.292 787.077 254.688 787.785 255.938C788.493 257.146 789.514 258.104 790.848 258.812C792.181 259.479 793.743 259.812 795.535 259.812C798.243 259.812 800.598 259.271 802.598 258.188C804.598 257.104 806.139 255.771 807.223 254.188C808.348 252.604 808.931 251.104 808.973 249.688L813.723 257.312C813.056 259.021 812.139 260.792 810.973 262.625C809.848 264.458 808.41 266.188 806.66 267.812C804.91 269.396 802.806 270.708 800.348 271.75C797.889 272.75 794.973 273.25 791.598 273.25C787.306 273.25 783.41 272.396 779.91 270.688C776.452 268.938 773.702 266.542 771.66 263.5C769.66 260.417 768.66 256.917 768.66 253C768.66 249.458 769.327 246.312 770.66 243.562C771.993 240.812 773.952 238.5 776.535 236.625C779.16 234.708 782.431 233.271 786.348 232.312C790.264 231.312 794.806 230.812 799.973 230.812H810.41ZM881.568 204.375H897.88V269.75C897.88 275.917 896.505 281.146 893.755 285.438C891.047 289.771 887.255 293.042 882.38 295.25C877.505 297.5 871.838 298.625 865.38 298.625C862.547 298.625 859.547 298.25 856.38 297.5C853.255 296.75 850.255 295.583 847.38 294C844.547 292.417 842.172 290.417 840.255 288L848.193 277.375C850.276 279.792 852.693 281.667 855.443 283C858.193 284.375 861.234 285.062 864.568 285.062C867.818 285.062 870.568 284.458 872.818 283.25C875.068 282.083 876.797 280.354 878.005 278.062C879.213 275.812 879.818 273.083 879.818 269.875V220L881.568 204.375ZM836.068 239V237.688C836.068 232.521 836.693 227.833 837.943 223.625C839.234 219.375 841.047 215.729 843.38 212.688C845.755 209.646 848.63 207.292 852.005 205.625C855.38 203.958 859.193 203.125 863.443 203.125C867.943 203.125 871.713 203.958 874.755 205.625C877.797 207.292 880.297 209.667 882.255 212.75C884.213 215.792 885.734 219.396 886.818 223.562C887.943 227.688 888.818 232.208 889.443 237.125V240C888.818 244.708 887.88 249.083 886.63 253.125C885.38 257.167 883.734 260.708 881.693 263.75C879.651 266.75 877.109 269.083 874.068 270.75C871.068 272.417 867.484 273.25 863.318 273.25C859.151 273.25 855.38 272.396 852.005 270.688C848.672 268.979 845.818 266.583 843.443 263.5C841.068 260.417 839.234 256.792 837.943 252.625C836.693 248.458 836.068 243.917 836.068 239ZM854.068 237.688V239C854.068 241.792 854.338 244.396 854.88 246.812C855.422 249.229 856.255 251.375 857.38 253.25C858.547 255.083 859.984 256.521 861.693 257.562C863.443 258.562 865.505 259.062 867.88 259.062C871.172 259.062 873.859 258.375 875.943 257C878.026 255.583 879.588 253.646 880.63 251.188C881.672 248.729 882.276 245.896 882.443 242.688V234.5C882.359 231.875 882.005 229.521 881.38 227.438C880.755 225.312 879.88 223.5 878.755 222C877.63 220.5 876.172 219.333 874.38 218.5C872.588 217.667 870.463 217.25 868.005 217.25C865.63 217.25 863.568 217.792 861.818 218.875C860.109 219.917 858.672 221.354 857.505 223.188C856.38 225.021 855.526 227.188 854.943 229.688C854.359 232.146 854.068 234.812 854.068 237.688ZM941.725 273.25C936.475 273.25 931.767 272.417 927.6 270.75C923.433 269.042 919.892 266.688 916.975 263.688C914.1 260.688 911.892 257.208 910.35 253.25C908.808 249.25 908.038 245 908.038 240.5V238C908.038 232.875 908.767 228.188 910.225 223.938C911.683 219.688 913.767 216 916.475 212.875C919.225 209.75 922.558 207.354 926.475 205.688C930.392 203.979 934.808 203.125 939.725 203.125C944.517 203.125 948.767 203.917 952.475 205.5C956.183 207.083 959.288 209.333 961.788 212.25C964.329 215.167 966.246 218.667 967.538 222.75C968.829 226.792 969.475 231.292 969.475 236.25V243.75H915.725V231.75H951.788V230.375C951.788 227.875 951.329 225.646 950.413 223.688C949.538 221.688 948.204 220.104 946.413 218.938C944.621 217.771 942.329 217.188 939.538 217.188C937.163 217.188 935.121 217.708 933.413 218.75C931.704 219.792 930.308 221.25 929.225 223.125C928.183 225 927.392 227.208 926.85 229.75C926.35 232.25 926.1 235 926.1 238V240.5C926.1 243.208 926.475 245.708 927.225 248C928.017 250.292 929.121 252.271 930.538 253.938C931.996 255.604 933.746 256.896 935.788 257.812C937.871 258.729 940.225 259.188 942.85 259.188C946.1 259.188 949.121 258.562 951.913 257.312C954.746 256.021 957.183 254.083 959.225 251.5L967.975 261C966.558 263.042 964.621 265 962.163 266.875C959.746 268.75 956.829 270.292 953.413 271.5C949.996 272.667 946.1 273.25 941.725 273.25ZM996.445 218.375V272H978.383V204.375H995.32L996.445 218.375ZM993.945 235.812H988.945C988.945 231.104 989.508 226.771 990.633 222.812C991.799 218.812 993.487 215.354 995.695 212.438C997.945 209.479 1000.72 207.188 1004.01 205.562C1007.3 203.938 1011.11 203.125 1015.45 203.125C1018.45 203.125 1021.2 203.583 1023.7 204.5C1026.2 205.375 1028.34 206.771 1030.13 208.688C1031.97 210.562 1033.38 213.021 1034.38 216.062C1035.38 219.062 1035.88 222.667 1035.88 226.875V272H1017.88V228.875C1017.88 225.792 1017.47 223.417 1016.63 221.75C1015.8 220.083 1014.61 218.917 1013.07 218.25C1011.57 217.583 1009.76 217.25 1007.63 217.25C1005.3 217.25 1003.26 217.729 1001.51 218.688C999.799 219.646 998.383 220.979 997.258 222.688C996.133 224.354 995.299 226.312 994.758 228.562C994.216 230.812 993.945 233.229 993.945 235.812ZM1034.2 233.75L1027.76 234.562C1027.76 230.146 1028.3 226.042 1029.38 222.25C1030.51 218.458 1032.15 215.125 1034.32 212.25C1036.53 209.375 1039.26 207.146 1042.51 205.562C1045.76 203.938 1049.51 203.125 1053.76 203.125C1057.01 203.125 1059.97 203.604 1062.63 204.562C1065.3 205.479 1067.57 206.958 1069.45 209C1071.36 211 1072.82 213.625 1073.82 216.875C1074.86 220.125 1075.38 224.104 1075.38 228.812V272H1057.32V228.812C1057.32 225.688 1056.9 223.312 1056.07 221.688C1055.28 220.021 1054.11 218.875 1052.57 218.25C1051.07 217.583 1049.28 217.25 1047.2 217.25C1045.03 217.25 1043.13 217.688 1041.51 218.562C1039.88 219.396 1038.53 220.562 1037.45 222.062C1036.36 223.562 1035.55 225.312 1035.01 227.312C1034.47 229.271 1034.2 231.417 1034.2 233.75ZM1119.16 273.25C1113.91 273.25 1109.21 272.417 1105.04 270.75C1100.87 269.042 1097.33 266.688 1094.41 263.688C1091.54 260.688 1089.33 257.208 1087.79 253.25C1086.25 249.25 1085.48 245 1085.48 240.5V238C1085.48 232.875 1086.21 228.188 1087.66 223.938C1089.12 219.688 1091.21 216 1093.91 212.875C1096.66 209.75 1100 207.354 1103.91 205.688C1107.83 203.979 1112.25 203.125 1117.16 203.125C1121.96 203.125 1126.21 203.917 1129.91 205.5C1133.62 207.083 1136.73 209.333 1139.23 212.25C1141.77 215.167 1143.69 218.667 1144.98 222.75C1146.27 226.792 1146.91 231.292 1146.91 236.25V243.75H1093.16V231.75H1129.23V230.375C1129.23 227.875 1128.77 225.646 1127.85 223.688C1126.98 221.688 1125.64 220.104 1123.85 218.938C1122.06 217.771 1119.77 217.188 1116.98 217.188C1114.6 217.188 1112.56 217.708 1110.85 218.75C1109.14 219.792 1107.75 221.25 1106.66 223.125C1105.62 225 1104.83 227.208 1104.29 229.75C1103.79 232.25 1103.54 235 1103.54 238V240.5C1103.54 243.208 1103.91 245.708 1104.66 248C1105.46 250.292 1106.56 252.271 1107.98 253.938C1109.44 255.604 1111.19 256.896 1113.23 257.812C1115.31 258.729 1117.66 259.188 1120.29 259.188C1123.54 259.188 1126.56 258.562 1129.35 257.312C1132.19 256.021 1134.62 254.083 1136.66 251.5L1145.41 261C1144 263.042 1142.06 265 1139.6 266.875C1137.19 268.75 1134.27 270.292 1130.85 271.5C1127.44 272.667 1123.54 273.25 1119.16 273.25ZM1173.51 218.812V272H1155.51V204.375H1172.39L1173.51 218.812ZM1170.89 235.812H1166.01C1166.01 230.812 1166.66 226.312 1167.95 222.312C1169.24 218.271 1171.05 214.833 1173.39 212C1175.72 209.125 1178.49 206.938 1181.7 205.438C1184.95 203.896 1188.57 203.125 1192.57 203.125C1195.74 203.125 1198.64 203.583 1201.26 204.5C1203.89 205.417 1206.14 206.875 1208.01 208.875C1209.93 210.875 1211.39 213.521 1212.39 216.812C1213.43 220.104 1213.95 224.125 1213.95 228.875V272H1195.82V228.812C1195.82 225.812 1195.41 223.479 1194.57 221.812C1193.74 220.146 1192.51 218.979 1190.89 218.312C1189.3 217.604 1187.34 217.25 1185.01 217.25C1182.59 217.25 1180.49 217.729 1178.7 218.688C1176.95 219.646 1175.49 220.979 1174.32 222.688C1173.2 224.354 1172.34 226.312 1171.76 228.562C1171.18 230.812 1170.89 233.229 1170.89 235.812ZM1259.48 204.375V217.125H1220.1V204.375H1259.48ZM1229.85 187.688H1247.85V251.625C1247.85 253.583 1248.1 255.083 1248.6 256.125C1249.15 257.167 1249.94 257.896 1250.98 258.312C1252.02 258.688 1253.33 258.875 1254.92 258.875C1256.04 258.875 1257.04 258.833 1257.92 258.75C1258.83 258.625 1259.6 258.5 1260.23 258.375L1260.29 271.625C1258.75 272.125 1257.08 272.521 1255.29 272.812C1253.5 273.104 1251.52 273.25 1249.35 273.25C1245.4 273.25 1241.94 272.604 1238.98 271.312C1236.06 269.979 1233.81 267.854 1232.23 264.938C1230.65 262.021 1229.85 258.188 1229.85 253.438V187.688Z" fill="#F2EEDF"/>
</svg>
